<svg version="1.1" id="Layer_1" xmlns="http://www.w3.org/2000/svg" x="0" y="0"
     viewBox="0 0 485 248" style="enable-background:new 0 0 485 248;" xml:space="preserve">
<g>
	<g>
		<path style="fill:#FF0000" d="M239.7,248c-4-0.5-8.1-1-12.1-1.6c-21.6-3.3-41-11.6-58.1-25.1c-15.4-12.1-27.2-27-35.5-44.7c-1.9-4-3.5-8.3-5-12.4
			c-0.5-1.4-1.2-2-2.8-2.3c-17.2-3-30.8-17.5-32.8-34.7c-2.8-24.4,16.6-45.8,41.1-45c16.5,0.6,28.3,8.9,35.8,23.9
			c-17.1,11.3-34.2,22.4-51.6,33.8c5.7,4.8,12,6.4,18.8,5.1c10.6-2,16.7-8.9,19.1-19.5c5.2,0.6,10.3,1.2,15.4,1.7
			c1.7,0.2,1.3,1.5,1.1,2.5c-1.3,6.4-3.9,12.3-7.9,17.5c-4.7,6.1-10.9,10.2-18.5,13.2c12.6,31.6,34.5,53.3,66.6,64.1
			c40.5,13.7,92.7,1.4,121.8-42.4c4.9,3.2,9.8,6.4,15.1,9.8c-1.8,2.6-3.5,5.1-5.4,7.5c-19.5,24.8-44.7,40.2-75.6,46.4
			c-4.4,0.9-8.9,1.1-13.3,1.7c-0.9,0.1-1.8,0.4-2.7,0.6C248.7,248,244.2,248,239.7,248z M145.6,103c-7.4-5.3-18.6-4.8-26.3,1
			c-6.6,5-10.6,15-8.4,21.7C122.5,118.2,134,110.6,145.6,103z"/>
    <path style="fill:#FF0000" d="M253.2,0c3.8,0.5,7.7,1,11.5,1.6c21.3,3.2,40.5,11.3,57.5,24.5c18.5,14.3,31.8,32.4,40.1,54.3c0.8,2.1,2,2.8,4,3.3
			c11.5,2.9,21.8,11.8,26.1,22.7c-17.1,11.2-34.2,22.5-51.6,33.9c3.8,3.4,8,4.9,12.8,5.4c12.3,1.1,23-7.7,24.8-18.5
			c0.1-0.6,1.1-1.4,1.5-1.4c5.2,0.6,10.4,1.3,15.5,1.9c-0.7,14.3-13.5,31.6-33,34.7c-21.2,3.3-40.8-9.3-46-29.6
			c-5-19.8,4.8-41.3,27.9-49.1c-13.3-30.1-35.1-50.6-66.5-60.5C235.5,9.7,186.8,23.8,158.2,65c-4.9-3.2-9.8-6.5-15.1-10
			c2.6-3.4,5-6.9,7.7-10.1c15.7-18.7,35.2-31.8,58.4-39.1c9-2.8,18.1-4.7,27.6-5.2c0.8,0,1.6-0.4,2.4-0.6C243.9,0,248.5,0,253.2,0z
			 M332.8,126.3c11.9-7.8,23.5-15.4,35.2-23.1c-5.6-4.5-15.4-5.3-23.1-1.3C336.2,106.5,331.7,115.4,332.8,126.3z"/>
    <path style="fill:#FF0000" d="M0.2,85c11.1,0,22.2,0,33.2,0.1c7.8,0.1,15.4,1.5,21.9,6.4c7.4,5.5,10,13.2,9,22c-1.1,9.5-3.3,12.4-13,19.5
			c5.4,8.6,10.8,17.2,16.3,26.2c-1.1,0.1-1.8,0.2-2.5,0.2c-5.6,0-11.2-0.1-16.8,0c-1.7,0-2.7-0.5-3.5-2c-3.2-6.1-6.7-12.1-9.9-18.2
			c-1-2-2.2-3-4.6-2.8c-3,0.2-6,0.1-9,0.1c-3.3,0-3.3,0-3.3,3.2c0,5.7,0,11.3,0,17c0,0.8,0,1.6,0,2.9c-6.1,0-12,0-17.9,0
			C0.2,134.7,0.2,109.8,0.2,85z M18.1,100.4c0,6.8,0,13,0.1,19.1c0,0.5,1,1.5,1.6,1.5c5.7-0.1,11.5,0,17.2-0.5
			c5.4-0.5,9.2-4.4,9.4-9c0.2-5.2-2.6-9.3-8.3-10.1C31.6,100.6,25,100.7,18.1,100.4z"/>
    <path style="fill:#FF0000" d="M484.7,159.5c-5.7-0.1-11.3-0.1-17-0.1c-12.8,0-25.7,0-38.5,0c-2,0-2.8-0.4-2.8-2.6c0.1-23.1,0-46.2,0-69.2
			c0-0.7,0.1-1.5,0.2-2.3c6,0,11.7,0,17.8,0c0,19.4,0,38.7,0,58.2c0.8,0.1,1.4,0.2,2,0.2c12.3,0,24.5,0,36.7,0c0.5,0,1-0.1,1.5-0.2
			C484.7,148.8,484.7,154.2,484.7,159.5z"/>
    <path style="fill:#FF0000" d="M202.6,85.1c6.9,0,13.3-0.1,19.8,0.1c0.6,0,1.5,1.1,1.8,1.9c5.9,14.3,11.6,28.7,17.5,43.1c1.4,3.4,2.9,6.8,4.9,10.3
			c1.4-3.5,2.9-6.9,4.3-10.4c5.7-14.2,11.5-28.5,17.2-42.7c0.6-1.6,1.4-2.3,3.2-2.2c6.1,0.1,12.3,0.1,18.8,0.1
			c-2,4.4-3.9,8.6-5.8,12.7c-9,19.8-18.1,39.5-27,59.4c-0.8,1.7-1.6,2.3-3.5,2.3c-4.8-0.1-9.7-0.1-14.5,0c-1.4,0-2.2-0.4-2.8-1.8
			c-10.6-22.6-21.1-45.3-31.7-67.9C203.9,88.3,203.4,86.9,202.6,85.1z"/>
	</g>
</g>
</svg>
